<!DOCTYPE svg PUBLIC "-//W3C//DTD SVG 1.1//EN" "http://www.w3.org/Graphics/SVG/1.1/DTD/svg11.dtd">
<!-- Uploaded to: SVG Repo, www.svgrepo.com, Transformed by: SVG Repo Mixer Tools -->
<svg width="256px" height="256px" viewBox="0 0 64.00 64.00" xmlns="http://www.w3.org/2000/svg" xmlns:xlink="http://www.w3.org/1999/xlink" aria-hidden="true" role="img" class="iconify iconify--emojione" preserveAspectRatio="xMidYMid meet" fill="#4b69ff" stroke="#4b69ff" stroke-width="0.00064" transform="matrix(1, 0, 0, 1, 0, 0)rotate(0)">
<g id="SVGRepo_bgCarrier" stroke-width="0"/>
<g id="SVGRepo_tracerCarrier" stroke-linecap="round" stroke-linejoin="round" stroke="#CCCCCC" stroke-width="0.128"/>
<g id="SVGRepo_iconCarrier">
<circle cx="32" cy="32" r="30" fill="#4b69ff"/>
<path d="M41.4 33.9c-1.7 1.4-4.1 2.1-7.3 2.1h-6v10.4h-6v-29h12.5c2.9 0 5.2.7 6.9 2.2c1.7 1.5 2.6 3.8 2.6 6.9c-.2 3.6-1 6-2.7 7.4m-4.6-10.4c-.8-.6-1.8-1-3.2-1h-5.5V31h5.5c1.4 0 2.5-.3 3.2-1s1.2-1.8 1.2-3.3c-.1-1.5-.5-2.6-1.2-3.2" fill="#ffffff"/>
</g>
</svg>